{
  "accessors": [
    {
      "bufferView": 1,
      "componentType": 5126,
      "count": 65532,
      "max": [
        26.776920318603516,
        100.48062133789063,
        25.517257690429688
      ],
      "min": [
        0.0,
        0.0078887939453125,
        4.941144943237305
      ],
      "type": "VEC3"
    },
    {
      "bufferView": 1,
      "byteOffset": 786384,
      "componentType": 5126,
      "count": 65532,
      "max": [
        0.999995231628418,
        1.0,
        0.9999964833259583
      ],
      "min": [
        -0.999998152256012,
        -0.999695897102356,
        -0.9999991059303284
      ],
      "type": "VEC3"
    },
    {
      "bufferView": 0,
      "componentType": 5125,
      "count": 353724,
      "type": "SCALAR"
    },
    {
      "bufferView": 1,
      "byteOffset": 1572768,
      "componentType": 5126,
      "count": 65532,
      "max": [
        28.221515655517578,
        100.48058319091797,
        23.88286590576172
      ],
      "min": [
        1.2946319580078125,
        0.0,
        0.05182075500488281
      ],
      "type": "VEC3"
    },
    {
      "bufferView": 1,
      "byteOffset": 2359152,
      "componentType": 5126,
      "count": 65532,
      "max": [
        0.9999979734420776,
        1.0,
        0.9999995231628418
      ],
      "min": [
        -0.9999394416809082,
        -0.9999513626098633,
        -0.999980628490448
      ],
      "type": "VEC3"
    },
    {
      "bufferView": 0,
      "byteOffset": 1414896,
      "componentType": 5125,
      "count": 332547,
      "type": "SCALAR"
    },
    {
      "bufferView": 1,
      "byteOffset": 3145536,
      "componentType": 5126,
      "count": 65532,
      "max": [
        28.221515655517578,
        100.48062896728516,
        23.98299789428711
      ],
      "min": [
        0.07409095764160156,
        0.24843597412109375,
        0.0
      ],
      "type": "VEC3"
    },
    {
      "bufferView": 1,
      "byteOffset": 3931920,
      "componentType": 5126,
      "count": 65532,
      "max": [
        0.9999982714653015,
        1.0,
        0.9999951124191284
      ],
      "min": [
        -0.9999759793281555,
        -0.9999513626098633,
        -0.9999949932098389
      ],
      "type": "VEC3"
    },
    {
      "bufferView": 0,
      "byteOffset": 2745084,
      "componentType": 5125,
      "count": 320454,
      "type": "SCALAR"
    },
    {
      "bufferView": 1,
      "byteOffset": 4718304,
      "componentType": 5126,
      "count": 3159,
      "max": [
        27.130706787109375,
        100.37923431396484,
        19.95049285888672
      ],
      "min": [
        0.04211235046386719,
        1.8789596557617188,
        17.059680938720703
      ],
      "type": "VEC3"
    },
    {
      "bufferView": 1,
      "byteOffset": 4756212,
      "componentType": 5126,
      "count": 3159,
      "max": [
        0.998443067073822,
        0.9932762980461121,
        0.9988189935684204
      ],
      "min": [
        -0.9996647238731384,
        -0.9903781414031982,
        -0.9997745752334595
      ],
      "type": "VEC3"
    },
    {
      "bufferView": 0,
      "byteOffset": 4026900,
      "componentType": 5125,
      "count": 7503,
      "type": "SCALAR"
    }
  ],
  "asset": {
    "extras": {
      "author": "punchdigital (https://sketchfab.com/punchdigital)",
      "license": "CC-BY-NC-4.0 (http://creativecommons.org/licenses/by-nc/4.0/)",
      "source": "https://sketchfab.com/3d-models/me-dean-3d-figure-scan-787112f5a651449685a90ae96b343742",
      "title": "Me (Dean) 3D figure scan"
    },
    "generator": "Sketchfab-12.68.0",
    "version": "2.0"
  },
  "bufferViews": [
    {
      "buffer": 0,
      "byteLength": 4056912,
      "name": "floatBufferViews",
      "target": 34963
    },
    {
      "buffer": 0,
      "byteLength": 4794120,
      "byteOffset": 4056912,
      "byteStride": 12,
      "name": "floatBufferViews",
      "target": 34962
    }
  ],
  "buffers": [
    {
      "byteLength": 8851032,
      "uri": "scene.bin"
    }
  ],
  "materials": [
    {
      "doubleSided": true,
      "name": "material_0",
      "pbrMetallicRoughness": {
        "baseColorFactor": [
          0.4987199530935721,
          0.4987199530935721,
          0.4987199530935721,
          1.0
        ],
        "metallicFactor": 0.12976371951219512,
        "roughnessFactor": 0.2848704268292682
      }
    }
  ],
  "meshes": [
    {
      "name": "Object_0",
      "primitives": [
        {
          "attributes": {
            "NORMAL": 1,
            "POSITION": 0
          },
          "indices": 2,
          "material": 0,
          "mode": 4
        }
      ]
    },
    {
      "name": "Object_1",
      "primitives": [
        {
          "attributes": {
            "NORMAL": 4,
            "POSITION": 3
          },
          "indices": 5,
          "material": 0,
          "mode": 4
        }
      ]
    },
    {
      "name": "Object_2",
      "primitives": [
        {
          "attributes": {
            "NORMAL": 7,
            "POSITION": 6
          },
          "indices": 8,
          "material": 0,
          "mode": 4
        }
      ]
    },
    {
      "name": "Object_3",
      "primitives": [
        {
          "attributes": {
            "NORMAL": 10,
            "POSITION": 9
          },
          "indices": 11,
          "material": 0,
          "mode": 4
        }
      ]
    }
  ],
  "nodes": [
    {
      "children": [
        1
      ],
      "matrix": [
        1.0,
        0.0,
        0.0,
        0.0,
        0.0,
        -1.0,
        -4.440892098500626e-16,
        0.0,
        0.0,
        4.440892098500626e-16,
        -1.0,
        0.0,
        0.0,
        -17.594873428344744,
        82.88652801513672,
        1.0
      ],
      "name": "Sketchfab_model"
    },
    {
      "children": [
        2,
        3,
        4,
        5
      ],
      "matrix": [
        1.0,
        0.0,
        0.0,
        0.0,
        0.0,
        1.0,
        0.0,
        0.0,
        0.0,
        0.0,
        1.0,
        0.0,
        -22.99247169494629,
        -100.48062896728516,
        19.88724136352539,
        1.0
      ],
      "name": "Dean_16mm_No_Support.obj.cleaner.gles"
    },
    {
      "mesh": 0,
      "name": "Object_2"
    },
    {
      "mesh": 1,
      "name": "Object_3"
    },
    {
      "mesh": 2,
      "name": "Object_4"
    },
    {
      "mesh": 3,
      "name": "Object_5"
    }
  ],
  "scene": 0,
  "scenes": [
    {
      "name": "Sketchfab_Scene",
      "nodes": [
        0
      ]
    }
  ]
}
